<svg xmlns="http://www.w3.org/2000/svg" fill="none" viewBox="0 0 160 160">
    <path fill="white" d="M55.1724 0h5.51724v5.51724H55.1724zM82.7586 0h5.51724v5.51724H82.7586zM88.2759 0h5.51724v5.51724H88.2759zM99.3104 0h5.51724v5.51724H99.3104zM44.1379 5.51721h5.51724v5.51724H44.1379z"/>
    <path fill="white" d="M49.6552 5.51721h5.51724v5.51724H49.6552zM60.6896 5.51721h5.51724v5.51724H60.6896zM66.2069 5.51721h5.51724v5.51724H66.2069z"/>
    <path fill="white" d="M71.7241 5.51721h5.51724v5.51724H71.7241zM77.2414 5.51721h5.51724v5.51724H77.2414zM88.2759 5.51721h5.51724v5.51724H88.2759z"/>
    <path fill="white" d="M93.7931 5.51721h5.51724v5.51724H93.7931zM110.345 5.51721h5.51724v5.51724H110.345zM44.1379 11.0345h5.51724v5.51724H44.1379zM49.6552 11.0345h5.51724v5.51724H49.6552z"/>
    <path fill="white" d="M55.1724 11.0345h5.51724v5.51724H55.1724zM66.2069 11.0345h5.51724v5.51724H66.2069z"/>
    <path fill="white" d="M71.7241 11.0345h5.51724v5.51724H71.7241zM82.7586 11.0345h5.51724v5.51724H82.7586zM99.3104 11.0345h5.51724v5.51724H99.3104zM110.345 11.0345h5.51724v5.51724H110.345zM44.1379 16.5517h5.51724v5.51724H44.1379zM49.6552 16.5517h5.51724v5.51724H49.6552zM60.6896 16.5517h5.51724v5.51724H60.6896zM88.2759 16.5517h5.51724v5.51724H88.2759z"/>
    <path fill="white" d="M93.7931 16.5517h5.51724v5.51724H93.7931zM110.345 16.5517h5.51724v5.51724H110.345zM49.6552 22.069h5.51724v5.51724H49.6552zM82.7586 22.069h5.51724v5.51724H82.7586zM88.2759 22.069h5.51724v5.51724H88.2759zM104.828 22.069h5.51724v5.51724H104.828z"/>
    <path fill="white" d="M110.345 22.069h5.51724v5.51724H110.345zM49.6552 27.5862h5.51724v5.51724H49.6552zM66.2069 27.5862h5.51724v5.51724H66.2069zM82.7586 27.5862h5.51724v5.51724H82.7586z"/>
    <path fill="white" d="M110.345 27.5862h5.51724v5.51724H110.345zM44.1379 33.1035h5.51724v5.51724H44.1379zM55.1724 33.1035h5.51724v5.51724H55.1724zM66.2069 33.1035h5.51724v5.51724H66.2069zM77.2414 33.1035h5.51724v5.51724H77.2414zM88.2759 33.1035h5.51724v5.51724H88.2759zM99.3104 33.1035h5.51724v5.51724H99.3104zM110.345 33.1035h5.51724v5.51724H110.345z"/>
    <path fill="white" d="M44.1379 38.6207h5.51724v5.51724H44.1379zM60.6896 38.6207h5.51724v5.51724H60.6896zM77.2414 38.6207h5.51724v5.51724H77.2414z"/>
    <path fill="white" d="M82.7586 38.6207h5.51724v5.51724H82.7586zM88.2759 38.6207h5.51724v5.51724H88.2759zM99.3104 38.6207h5.51724v5.51724H99.3104zM110.345 38.6207h5.51724v5.51724H110.345zM0 44.1379h5.51724v5.51724H0zM33.1035 44.1379h5.51724v5.51724H33.1035zM44.1379 44.1379h5.51724v5.51724H44.1379zM55.1724 44.1379h5.51724v5.51724H55.1724z"/>
    <path fill="white" d="M88.2759 44.1379h5.51724v5.51724H88.2759z"/>
    <path fill="white" d="M93.7931 44.1379h5.51724v5.51724H93.7931zM104.828 44.1379h5.51724v5.51724H104.828zM115.862 44.1379h5.51724v5.51724H115.862z"/>
    <path fill="white" d="M121.379 44.1379h5.51724v5.51724H121.379zM137.931 44.1379h5.51724v5.51724H137.931z"/>
    <path fill="white" d="M143.448 44.1379h5.51724v5.51724H143.448zM148.966 44.1379h5.51724v5.51724H148.966zM0 49.6552h5.51724v5.51724H0zM11.0345 49.6552h5.51724v5.51724H11.0345zM27.5862 49.6552h5.51724v5.51724H27.5862zM71.7241 49.6552h5.51724v5.51724H71.7241zM88.2759 49.6552h5.51724v5.51724H88.2759z"/>
    <path fill="white" d="M93.7931 49.6552h5.51724v5.51724H93.7931zM99.3104 49.6552h5.51724v5.51724H99.3104zM104.828 49.6552h5.51724v5.51724H104.828zM126.897 49.6552h5.51724v5.51724H126.897z"/>
    <path fill="white" d="M132.414 49.6552h5.51724v5.51724H132.414zM143.448 49.6552h5.51724v5.51724H143.448zM148.966 49.6552h5.51724v5.51724H148.966zM5.51721 55.1724h5.51724v5.51724H5.51721zM11.0345 55.1724h5.51724v5.51724H11.0345z"/>
    <path fill="white" d="M16.5517 55.1724h5.51724v5.51724H16.5517zM22.069 55.1724h5.51724v5.51724H22.069zM33.1035 55.1724h5.51724v5.51724H33.1035z"/>
    <path fill="white" d="M38.6207 55.1724h5.51724v5.51724H38.6207z"/>
    <path fill="white" d="M44.1379 55.1724h5.51724v5.51724H44.1379zM49.6552 55.1724h5.51724v5.51724H49.6552zM66.2069 55.1724h5.51724v5.51724H66.2069z"/>
    <path fill="white" d="M71.7241 55.1724h5.51724v5.51724H71.7241zM77.2414 55.1724h5.51724v5.51724H77.2414z"/>
    <path fill="white" d="M82.7586 55.1724h5.51724v5.51724H82.7586zM88.2759 55.1724h5.51724v5.51724H88.2759z"/>
    <path fill="white" d="M93.7931 55.1724h5.51724v5.51724H93.7931zM0 60.6896h5.51724v5.51724H0zM11.0345 60.6896h5.51724v5.51724H11.0345zM27.5862 60.6896h5.51724v5.51724H27.5862zM38.6207 60.6896h5.51724v5.51724H38.6207z"/>
    <path fill="white" d="M44.1379 60.6896h5.51724v5.51724H44.1379zM49.6552 60.6896h5.51724v5.51724H49.6552z"/>
    <path fill="white" d="M55.1724 60.6896h5.51724v5.51724H55.1724zM66.2069 60.6896h5.51724v5.51724H66.2069z"/>
    <path fill="white" d="M71.7241 60.6896h5.51724v5.51724H71.7241zM110.345 60.6896h5.51724v5.51724H110.345zM121.379 60.6896h5.51724v5.51724H121.379zM126.897 60.6896h5.51724v5.51724H126.897zM137.931 60.6896h5.51724v5.51724H137.931zM5.51721 66.2069h5.51724v5.51724H5.51721zM27.5862 66.2069h5.51724v5.51724H27.5862zM33.1035 66.2069h5.51724v5.51724H33.1035zM44.1379 66.2069h5.51724v5.51724H44.1379zM55.1724 66.2069h5.51724v5.51724H55.1724zM71.7241 66.2069h5.51724v5.51724H71.7241zM82.7586 66.2069h5.51724v5.51724H82.7586zM88.2759 66.2069h5.51724v5.51724H88.2759zM104.828 66.2069h5.51724v5.51724H104.828z"/>
    <path fill="white" d="M110.345 66.2069h5.51724v5.51724H110.345zM121.379 66.2069h5.51724v5.51724H121.379zM126.897 66.2069h5.51724v5.51724H126.897zM154.483 66.2069h5.51724v5.51724H154.483zM11.0345 71.7241h5.51724v5.51724H11.0345zM22.069 71.7241h5.51724v5.51724H22.069zM38.6207 71.7241h5.51724v5.51724H38.6207zM49.6552 71.7241h5.51724v5.51724H49.6552z"/>
    <path fill="white" d="M55.1724 71.7241h5.51724v5.51724H55.1724zM88.2759 71.7241h5.51724v5.51724H88.2759zM104.828 71.7241h5.51724v5.51724H104.828z"/>
    <path fill="white" d="M110.345 71.7241h5.51724v5.51724H110.345z"/>
    <path fill="white" d="M115.862 71.7241h5.51724v5.51724H115.862z"/>
    <path fill="white" d="M121.379 71.7241h5.51724v5.51724H121.379zM132.414 71.7241h5.51724v5.51724H132.414zM148.966 71.7241h5.51724v5.51724H148.966z"/>
    <path fill="white" d="M154.483 71.7241h5.51724v5.51724H154.483zM0 77.2414h5.51724v5.51724H0z"/>
    <path fill="white" d="M5.51721 77.2414h5.51724v5.51724H5.51721zM22.069 77.2414h5.51724v5.51724H22.069zM33.1035 77.2414h5.51724v5.51724H33.1035zM44.1379 77.2414h5.51724v5.51724H44.1379zM49.6552 77.2414h5.51724v5.51724H49.6552zM93.7931 77.2414h5.51724v5.51724H93.7931zM99.3104 77.2414h5.51724v5.51724H99.3104zM115.862 77.2414h5.51724v5.51724H115.862zM126.897 77.2414h5.51724v5.51724H126.897zM137.931 77.2414h5.51724v5.51724H137.931z"/>
    <path fill="white" d="M143.448 77.2414h5.51724v5.51724H143.448zM44.1379 82.7586h5.51724v5.51724H44.1379zM49.6552 82.7586h5.51724v5.51724H49.6552z"/>
    <path fill="white" d="M55.1724 82.7586h5.51724v5.51724H55.1724zM82.7586 82.7586h5.51724v5.51724H82.7586zM99.3104 82.7586h5.51724v5.51724H99.3104zM104.828 82.7586h5.51724v5.51724H104.828zM126.897 82.7586h5.51724v5.51724H126.897z"/>
    <path fill="white" d="M132.414 82.7586h5.51724v5.51724H132.414zM143.448 82.7586h5.51724v5.51724H143.448zM154.483 82.7586h5.51724v5.51724H154.483zM0 88.2759h5.51724v5.51724H0zM22.069 88.2759h5.51724v5.51724H22.069z"/>
    <path fill="white" d="M27.5862 88.2759h5.51724v5.51724H27.5862zM33.1035 88.2759h5.51724v5.51724H33.1035zM60.6896 88.2759h5.51724v5.51724H60.6896zM88.2759 88.2759h5.51724v5.51724H88.2759z"/>
    <path fill="white" d="M93.7931 88.2759h5.51724v5.51724H93.7931zM99.3104 88.2759h5.51724v5.51724H99.3104zM104.828 88.2759h5.51724v5.51724H104.828zM126.897 88.2759h5.51724v5.51724H126.897zM137.931 88.2759h5.51724v5.51724H137.931z"/>
    <path fill="white" d="M143.448 88.2759h5.51724v5.51724H143.448zM0 93.7931h5.51724v5.51724H0zM38.6207 93.7931h5.51724v5.51724H38.6207z"/>
    <path fill="white" d="M44.1379 93.7931h5.51724v5.51724H44.1379zM49.6552 93.7931h5.51724v5.51724H49.6552zM60.6896 93.7931h5.51724v5.51724H60.6896zM71.7241 93.7931h5.51724v5.51724H71.7241zM77.2414 93.7931h5.51724v5.51724H77.2414zM93.7931 93.7931h5.51724v5.51724H93.7931zM99.3104 93.7931h5.51724v5.51724H99.3104zM104.828 93.7931h5.51724v5.51724H104.828z"/>
    <path fill="white" d="M110.345 93.7931h5.51724v5.51724H110.345zM121.379 93.7931h5.51724v5.51724H121.379zM126.897 93.7931h5.51724v5.51724H126.897z"/>
    <path fill="white" d="M132.414 93.7931h5.51724v5.51724H132.414zM143.448 93.7931h5.51724v5.51724H143.448zM148.966 93.7931h5.51724v5.51724H148.966z"/>
    <path fill="white" d="M154.483 93.7931h5.51724v5.51724H154.483zM0 99.3104h5.51724v5.51724H0z"/>
    <path fill="white" d="M5.51721 99.3104h5.51724v5.51724H5.51721zM16.5517 99.3104h5.51724v5.51724H16.5517zM22.069 99.3104h5.51724v5.51724H22.069z"/>
    <path fill="white" d="M27.5862 99.3104h5.51724v5.51724H27.5862zM33.1035 99.3104h5.51724v5.51724H33.1035zM44.1379 99.3104h5.51724v5.51724H44.1379zM49.6552 99.3104h5.51724v5.51724H49.6552zM60.6896 99.3104h5.51724v5.51724H60.6896zM82.7586 99.3104h5.51724v5.51724H82.7586zM104.828 99.3104h5.51724v5.51724H104.828zM137.931 99.3104h5.51724v5.51724H137.931zM154.483 99.3104h5.51724v5.51724H154.483zM0 104.828h5.51724v5.51724H0zM11.0345 104.828h5.51724v5.51724H11.0345z"/>
    <path fill="white" d="M16.5517 104.828h5.51724v5.51724H16.5517zM27.5862 104.828h5.51724v5.51724H27.5862zM49.6552 104.828h5.51724v5.51724H49.6552z"/>
    <path fill="white" d="M55.1724 104.828h5.51724v5.51724H55.1724zM66.2069 104.828h5.51724v5.51724H66.2069z"/>
    <path fill="white" d="M71.7241 104.828h5.51724v5.51724H71.7241zM99.3104 104.828h5.51724v5.51724H99.3104zM110.345 104.828h5.51724v5.51724H110.345z"/>
    <path fill="white" d="M115.862 104.828h5.51724v5.51724H115.862z"/>
    <path fill="white" d="M121.379 104.828h5.51724v5.51724H121.379zM126.897 104.828h5.51724v5.51724H126.897z"/>
    <path fill="white" d="M132.414 104.828h5.51724v5.51724H132.414zM0 110.345h5.51724v5.51724H0zM22.069 110.345h5.51724v5.51724H22.069zM33.1035 110.345h5.51724v5.51724H33.1035z"/>
    <path fill="white" d="M38.6207 110.345h5.51724v5.51724H38.6207zM49.6552 110.345h5.51724v5.51724H49.6552zM60.6896 110.345h5.51724v5.51724H60.6896zM77.2414 110.345h5.51724v5.51724H77.2414z"/>
    <path fill="white" d="M82.7586 110.345h5.51724v5.51724H82.7586zM93.7931 110.345h5.51724v5.51724H93.7931zM110.345 110.345h5.51724v5.51724H110.345z"/>
    <path fill="white" d="M115.862 110.345h5.51724v5.51724H115.862z"/>
    <path fill="white" d="M121.379 110.345h5.51724v5.51724H121.379zM126.897 110.345h5.51724v5.51724H126.897z"/>
    <path fill="white" d="M132.414 110.345h5.51724v5.51724H132.414zM143.448 110.345h5.51724v5.51724H143.448zM148.966 110.345h5.51724v5.51724H148.966z"/>
    <path fill="white" d="M154.483 110.345h5.51724v5.51724H154.483zM44.1379 115.862h5.51724v5.51724H44.1379zM49.6552 115.862h5.51724v5.51724H49.6552z"/>
    <path fill="white" d="M55.1724 115.862h5.51724v5.51724H55.1724zM77.2414 115.862h5.51724v5.51724H77.2414zM93.7931 115.862h5.51724v5.51724H93.7931zM99.3104 115.862h5.51724v5.51724H99.3104zM110.345 115.862h5.51724v5.51724H110.345zM132.414 115.862h5.51724v5.51724H132.414z"/>
    <path fill="white" d="M137.931 115.862h5.51724v5.51724H137.931zM66.2069 121.379h5.51724v5.51724H66.2069zM99.3104 121.379h5.51724v5.51724H99.3104zM104.828 121.379h5.51724v5.51724H104.828z"/>
    <path fill="white" d="M110.345 121.379h5.51724v5.51724H110.345zM121.379 121.379h5.51724v5.51724H121.379zM132.414 121.379h5.51724v5.51724H132.414z"/>
    <path fill="white" d="M137.931 121.379h5.51724v5.51724H137.931z"/>
    <path fill="white" d="M143.448 121.379h5.51724v5.51724H143.448zM55.1724 126.897h5.51724v5.51724H55.1724z"/>
    <path fill="white" d="M60.6896 126.897h5.51724v5.51724H60.6896zM77.2414 126.897h5.51724v5.51724H77.2414z"/>
    <path fill="white" d="M82.7586 126.897h5.51724v5.51724H82.7586zM88.2759 126.897h5.51724v5.51724H88.2759zM104.828 126.897h5.51724v5.51724H104.828z"/>
    <path fill="white" d="M110.345 126.897h5.51724v5.51724H110.345zM132.414 126.897h5.51724v5.51724H132.414zM154.483 126.897h5.51724v5.51724H154.483zM66.2069 132.414h5.51724v5.51724H66.2069z"/>
    <path fill="white" d="M71.7241 132.414h5.51724v5.51724H71.7241zM77.2414 132.414h5.51724v5.51724H77.2414zM88.2759 132.414h5.51724v5.51724H88.2759zM104.828 132.414h5.51724v5.51724H104.828z"/>
    <path fill="white" d="M110.345 132.414h5.51724v5.51724H110.345z"/>
    <path fill="white" d="M115.862 132.414h5.51724v5.51724H115.862z"/>
    <path fill="white" d="M121.379 132.414h5.51724v5.51724H121.379zM126.897 132.414h5.51724v5.51724H126.897z"/>
    <path fill="white" d="M132.414 132.414h5.51724v5.51724H132.414z"/>
    <path fill="white" d="M137.931 132.414h5.51724v5.51724H137.931zM49.6552 137.931h5.51724v5.51724H49.6552z"/>
    <path fill="white" d="M55.1724 137.931h5.51724v5.51724H55.1724z"/>
    <path fill="white" d="M60.6896 137.931h5.51724v5.51724H60.6896zM71.7241 137.931h5.51724v5.51724H71.7241zM77.2414 137.931h5.51724v5.51724H77.2414zM93.7931 137.931h5.51724v5.51724H93.7931zM99.3104 137.931h5.51724v5.51724H99.3104zM115.862 137.931h5.51724v5.51724H115.862zM126.897 137.931h5.51724v5.51724H126.897zM137.931 137.931h5.51724v5.51724H137.931z"/>
    <path fill="white" d="M143.448 137.931h5.51724v5.51724H143.448zM148.966 137.931h5.51724v5.51724H148.966zM49.6552 143.448h5.51724v5.51724H49.6552z"/>
    <path fill="white" d="M55.1724 143.448h5.51724v5.51724H55.1724zM82.7586 143.448h5.51724v5.51724H82.7586zM88.2759 143.448h5.51724v5.51724H88.2759z"/>
    <path fill="white" d="M93.7931 143.448h5.51724v5.51724H93.7931zM104.828 143.448h5.51724v5.51724H104.828zM115.862 143.448h5.51724v5.51724H115.862z"/>
    <path fill="white" d="M121.379 143.448h5.51724v5.51724H121.379zM126.897 143.448h5.51724v5.51724H126.897z"/>
    <path fill="white" d="M132.414 143.448h5.51724v5.51724H132.414z"/>
    <path fill="white" d="M137.931 143.448h5.51724v5.51724H137.931z"/>
    <path fill="white" d="M143.448 143.448h5.51724v5.51724H143.448zM148.966 143.448h5.51724v5.51724H148.966zM66.2069 148.966h5.51724v5.51724H66.2069zM82.7586 148.966h5.51724v5.51724H82.7586zM104.828 148.966h5.51724v5.51724H104.828zM115.862 148.966h5.51724v5.51724H115.862zM126.897 148.966h5.51724v5.51724H126.897zM137.931 148.966h5.51724v5.51724H137.931z"/>
    <path fill="white" d="M143.448 148.966h5.51724v5.51724H143.448zM154.483 148.966h5.51724v5.51724H154.483zM44.1379 154.483h5.51724v5.51724H44.1379zM49.6552 154.483h5.51724v5.51724H49.6552zM60.6896 154.483h5.51724v5.51724H60.6896zM71.7241 154.483h5.51724v5.51724H71.7241zM77.2414 154.483h5.51724v5.51724H77.2414zM93.7931 154.483h5.51724v5.51724H93.7931zM99.3104 154.483h5.51724v5.51724H99.3104zM104.828 154.483h5.51724v5.51724H104.828zM115.862 154.483h5.51724v5.51724H115.862z"/>
    <path fill="white" d="M121.379 154.483h5.51724v5.51724H121.379zM126.897 154.483h5.51724v5.51724H126.897z"/>
    <path fill="white" d="M132.414 154.483h5.51724v5.51724H132.414z"/>
    <path fill="white" d="M137.931 154.483h5.51724v5.51724H137.931z"/>
    <path fill="white" d="M143.448 154.483h5.51724v5.51724H143.448z"/>
    <path fill="white" fill-rule="evenodd" d="M5.7931 0H38.6207V38.6207H0V0h5.7931Zm0 32.8276h27.0345V5.7931H5.7931v27.0345ZM127.172 0H160V38.6207h-38.621V0h5.793Zm0 32.8276h27.035V5.7931h-27.035v27.0345ZM5.7931 121.379H38.6207V160H0v-38.621h5.7931Zm0 32.828h27.0345v-27.035H5.7931v27.035Z" clip-rule="evenodd"/>
    <path fill="white" d="M11.0345 11.0345h16.5517v16.5517H11.0345zM132.414 11.0345h16.5517v16.5517H132.414zM11.0345 132.414h16.5517v16.5517H11.0345z"/>
</svg>